<?xml version="1.0" encoding="iso-8859-1"?>
<!-- Generator: Adobe Illustrator 19.0.0, SVG Export Plug-In . SVG Version: 6.00 Build 0)  -->
<svg version="1.1" id="Capa_1" xmlns="http://www.w3.org/2000/svg" xmlns:xlink="http://www.w3.org/1999/xlink" x="0px" y="0px"
	 viewBox="0 0 490.026 490.026" style="enable-background:new 0 0 490.026 490.026;" xml:space="preserve">
<g>
	<g>
		<g>
			<path d="M262.427,45.225c-60.3-60.3-157.4-60.3-217.3,0s-59.9,158.2,0,218.5c59.9,60.6,157,60.6,217.3,0.4
				C322.227,203.825,322.227,105.825,262.427,45.225z M73.427,235.325c-44.3-44.7-44.3-116.6,0-161.3c44.3-44.3,116.2-44.3,160.2,0
				s44.3,116.6,0,161.3C189.727,280.025,117.827,280.025,73.427,235.325z"/>
			<path d="M84.727,128.425c0.4-5.4-3.9-10.1-9.7-10.5c-5.4,0-10.1,3.9-10.5,9.7c-0.4,5.1,0.4,10.1,1.9,15.2c1.2,4.3,7.1,8.9,12.4,7
				c5.4-1.6,8.2-7,7-12.4C85.127,134.225,84.727,131.525,84.727,128.425z"/>
			<path d="M136.027,69.725c-4.3-3.1-10.5-2.3-14,1.9c-3.1,4.3-2.3,10.5,1.9,14c2.3,1.6,4.3,3.9,5.4,6.2c1.9,3.1,7.5,7,13.2,3.9
				c4.7-2.7,6.6-8.9,3.9-13.6C144.627,77.125,140.727,72.825,136.027,69.725z"/>
			<path d="M193.227,100.825c1.9,2.7,7.7,6.5,13.6,2.7c4.7-3.1,5.8-9.3,2.7-14l-6.6-10.1c-3.1-4.7-9.3-5.8-14-2.7
				c-4.7,3.1-5.8,9.3-2.7,14L193.227,100.825z"/>
			<path d="M131.827,156.825c-3.5-4.3-9.7-4.7-14-1.2s-4.7,9.7-1.2,14l9.3,10.9c1.9,2.3,8.1,6,14.4,1.2c4.3-3.5,4.7-9.7,1.2-14
				L131.827,156.825z"/>
			<path d="M204.427,156.425c-1.6-7.8-5.8-14.4-12.4-19c-4.7-3.1-10.9-1.9-14,2.3c-3.1,4.7-1.9,10.9,2.3,14c2.3,1.6,3.9,3.9,4.3,6.6
				c0.8,4.7,6.3,9.2,11.7,8.2C202.127,166.925,205.627,161.825,204.427,156.425z"/>
			<path d="M131.027,210.425l-22.5-8.6c-5.1-1.9-10.9,0.8-12.8,5.8s0.8,10.9,5.8,12.8l22.5,8.6c6.1,2.3,11.3-1.6,12.8-5.8
				C138.827,217.825,136.027,212.025,131.027,210.425z"/>
			<path d="M210.327,199.525c-5.4,0.8-9.3,5.8-8.6,11.3c0.4,1.9-0.4,3.9-1.6,5.4c-3.5,4.3-3.5,10.5,0.8,14c1.9,1.6,8.1,5.5,14-0.4
				c5.1-5.8,7.8-13.6,6.6-21.4C220.827,202.625,215.727,198.725,210.327,199.525z"/>
			<path d="M475.427,412.125l-176.9-161.7c-6.2,9.7-13.6,19-22.2,27.6c-7.4,7.4-15.5,14.4-24.1,20.2l160.2,177.3
				c17.1,18.7,46.3,19.4,64.1,1.6C494.827,458.825,494.027,429.225,475.427,412.125z"/>
		</g>
	</g>
</g>
<g>
</g>
<g>
</g>
<g>
</g>
<g>
</g>
<g>
</g>
<g>
</g>
<g>
</g>
<g>
</g>
<g>
</g>
<g>
</g>
<g>
</g>
<g>
</g>
<g>
</g>
<g>
</g>
<g>
</g>
</svg>
